<svg width="22" height="22" xmlns="http://www.w3.org/2000/svg"><g fill="none" fill-rule="evenodd"><circle cx="11" cy="11" r="11" fill="#6EACF5"/><path d="M7 5h8a2 2 0 012 2v9a2 2 0 01-2 2H7a2 2 0 01-2-2V7a2 2 0 012-2z" fill="#FFF" fill-rule="nonzero"/><path d="M7.5 14.438h4.608a.5.5 0 100-1H7.5a.5.5 0 000 1zM7.5 16.438H10a.5.5 0 100-1H7.5a.5.5 0 000 1zM7.5 12.438h7a.5.5 0 100-1h-7a.5.5 0 000 1z" fill="#6EACF5" fill-rule="nonzero"/><rect fill="#6EACF5" fill-rule="nonzero" x="7" y="7" width="8" height="3" rx="1"/></g></svg>