<svg fill="none" height="400" viewBox="0 0 1040 400" width="1040" xmlns="http://www.w3.org/2000/svg" xmlns:xlink="http://www.w3.org/1999/xlink"><filter id="a" color-interpolation-filters="sRGB" filterUnits="userSpaceOnUse" height="68" width="62" x="177" y="41"><feFlood flood-opacity="0" result="BackgroundImageFix"/><feColorMatrix in="SourceAlpha" result="hardAlpha" type="matrix" values="0 0 0 0 0 0 0 0 0 0 0 0 0 0 0 0 0 0 127 0"/><feOffset dy="6"/><feColorMatrix type="matrix" values="0 0 0 0 0 0 0 0 0 0 0 0 0 0 0 0 0 0 0.34 0"/><feBlend in2="BackgroundImageFix" mode="multiply" result="effect1_dropShadow"/><feBlend in="SourceGraphic" in2="effect1_dropShadow" mode="normal" result="shape"/></filter><filter id="b" color-interpolation-filters="sRGB" filterUnits="userSpaceOnUse" height="78" width="108" x="241" y="194"><feFlood flood-opacity="0" result="BackgroundImageFix"/><feColorMatrix in="SourceAlpha" result="hardAlpha" type="matrix" values="0 0 0 0 0 0 0 0 0 0 0 0 0 0 0 0 0 0 127 0"/><feOffset dy="6"/><feColorMatrix type="matrix" values="0 0 0 0 0 0 0 0 0 0 0 0 0 0 0 0 0 0 0.34 0"/><feBlend in2="BackgroundImageFix" mode="multiply" result="effect1_dropShadow"/><feBlend in="SourceGraphic" in2="effect1_dropShadow" mode="normal" result="shape"/></filter><filter id="c" color-interpolation-filters="sRGB" filterUnits="userSpaceOnUse" height="80" width="116" x="840" y="89"><feFlood flood-opacity="0" result="BackgroundImageFix"/><feColorMatrix in="SourceAlpha" result="hardAlpha" type="matrix" values="0 0 0 0 0 0 0 0 0 0 0 0 0 0 0 0 0 0 127 0"/><feOffset dy="6"/><feColorMatrix type="matrix" values="0 0 0 0 0 0 0 0 0 0 0 0 0 0 0 0 0 0 0.34 0"/><feBlend in2="BackgroundImageFix" mode="multiply" result="effect1_dropShadow"/><feBlend in="SourceGraphic" in2="effect1_dropShadow" mode="normal" result="shape"/></filter><filter id="d" color-interpolation-filters="sRGB" filterUnits="userSpaceOnUse" height="126" width="150" x="407" y="240"><feFlood flood-opacity="0" result="BackgroundImageFix"/><feColorMatrix in="SourceAlpha" result="hardAlpha" type="matrix" values="0 0 0 0 0 0 0 0 0 0 0 0 0 0 0 0 0 0 127 0"/><feOffset dy="6"/><feColorMatrix type="matrix" values="0 0 0 0 0 0 0 0 0 0 0 0 0 0 0 0 0 0 0.34 0"/><feBlend in2="BackgroundImageFix" mode="multiply" result="effect1_dropShadow"/><feBlend in="SourceGraphic" in2="effect1_dropShadow" mode="normal" result="shape"/></filter><filter id="e" color-interpolation-filters="sRGB" filterUnits="userSpaceOnUse" height="83.2103" width="77.21" x="434" y="37"><feFlood flood-opacity="0" result="BackgroundImageFix"/><feColorMatrix in="SourceAlpha" result="hardAlpha" type="matrix" values="0 0 0 0 0 0 0 0 0 0 0 0 0 0 0 0 0 0 127 0"/><feOffset dy="6"/><feColorMatrix type="matrix" values="0 0 0 0 0 0 0 0 0 0 0 0 0 0 0 0 0 0 0.34 0"/><feBlend in2="BackgroundImageFix" mode="multiply" result="effect1_dropShadow"/><feBlend in="SourceGraphic" in2="effect1_dropShadow" mode="normal" result="shape"/></filter><filter id="f" color-interpolation-filters="sRGB" filterUnits="userSpaceOnUse" height="80" width="108" x="779" y="254"><feFlood flood-opacity="0" result="BackgroundImageFix"/><feColorMatrix in="SourceAlpha" result="hardAlpha" type="matrix" values="0 0 0 0 0 0 0 0 0 0 0 0 0 0 0 0 0 0 127 0"/><feOffset dy="6"/><feColorMatrix type="matrix" values="0 0 0 0 0 0 0 0 0 0 0 0 0 0 0 0 0 0 0.34 0"/><feBlend in2="BackgroundImageFix" mode="multiply" result="effect1_dropShadow"/><feBlend in="SourceGraphic" in2="effect1_dropShadow" mode="normal" result="shape"/></filter><filter id="g" color-interpolation-filters="sRGB" filterUnits="userSpaceOnUse" height="36" width="110" x="890" y="213"><feFlood flood-opacity="0" result="BackgroundImageFix"/><feColorMatrix in="SourceAlpha" result="hardAlpha" type="matrix" values="0 0 0 0 0 0 0 0 0 0 0 0 0 0 0 0 0 0 127 0"/><feOffset dy="6"/><feColorMatrix type="matrix" values="0 0 0 0 0 0 0 0 0 0 0 0 0 0 0 0 0 0 0.34 0"/><feBlend in2="BackgroundImageFix" mode="multiply" result="effect1_dropShadow"/><feBlend in="SourceGraphic" in2="effect1_dropShadow" mode="normal" result="shape"/></filter><mask id="h" height="74" maskUnits="userSpaceOnUse" width="116" x="840" y="89"><rect fill="#f17ba5" height="74" rx="8" width="116" x="840" y="89"/></mask><path d="m0 0h1040v400h-1040z" fill="#0a2d4d"/><path d="m339 232c0-3.866 3.134-7 7-7h110c3.866 0 7 3.134 7 7v52c0 3.866-3.134 7-7 7h-110c-3.866 0-7-3.134-7-7z" stroke="#fab6d7" stroke-width="2"/><path d="m163 103c0-3.866 3.134-7 7-7h40c3.866 0 7 3.134 7 7v54c0 3.866-3.134 7-7 7h-40c-3.866 0-7-3.134-7-7z" stroke="#fab6d7" stroke-width="2"/><path d="m818 197c0-4.971 4.029-9 9-9h68c4.971 0 9 4.029 9 9v68c0 4.971-4.029 9-9 9h-68c-4.971 0-9-4.029-9-9z" stroke="#fab6d7" stroke-width="2"/><path d="m-1 1h58v8h-58z" stroke="#034ea6" stroke-width="2" transform="matrix(-1 0 0 1 127 97)"/><path d="m-1 1h58v8h-58z" stroke="#034ea6" stroke-width="2" transform="matrix(-1 0 0 1 347 78)"/><path d="m-1 1h68v8h-68z" stroke="#034ea6" stroke-width="2" transform="matrix(-1 0 0 1 219 344)"/><path d="m-1 1h48v8h-48z" stroke="#034ea6" stroke-width="2" transform="matrix(-1 0 0 1 968 342)"/><path d="m-1 1h68v8h-68z" stroke="#034ea6" stroke-width="2" transform="matrix(-1 0 0 1 896 51)"/><circle r="4" stroke="#034ea6" stroke-width="2" transform="matrix(-1 0 0 1 51 133)"/><circle r="4" stroke="#034ea6" stroke-width="2" transform="matrix(-1 0 0 1 375 55)"/><circle r="4" stroke="#034ea6" stroke-width="2" transform="matrix(-1 0 0 1 359 329)"/><circle r="4" stroke="#034ea6" stroke-width="2" transform="matrix(-1 0 0 1 985 310)"/><circle r="4" stroke="#034ea6" stroke-width="2" transform="matrix(-1 0 0 1 800 46)"/><path d="m883.38 129.82s-4.4.98-7.17-.65-6.35-7.17-12.38-7.17c-8.96 0-9.94 8.4-16.78 8.11" stroke="#034ea6" stroke-linecap="round" stroke-linejoin="round" stroke-miterlimit="10" stroke-width="2"/><path d="m883.38 149.82s-4.4.98-7.17-.65-6.35-7.17-12.38-7.17c-8.96 0-9.94 8.4-16.78 8.11" stroke="#034ea6" stroke-linecap="round" stroke-linejoin="round" stroke-miterlimit="10" stroke-width="2"/><path d="m849.33 129.82s-4.4.98-7.17-.65-6.35-7.17-12.38-7.17c-8.96 0-9.94 8.4-16.78 8.11" stroke="#034ea6" stroke-linecap="round" stroke-linejoin="round" stroke-miterlimit="10" stroke-width="2"/><path d="m849.33 149.82s-4.4.98-7.17-.65-6.35-7.17-12.38-7.17c-8.96 0-9.94 8.4-16.78 8.11" stroke="#034ea6" stroke-linecap="round" stroke-linejoin="round" stroke-miterlimit="10" stroke-width="2"/><path d="m815.33 129.82s-4.4.98-7.17-.65-6.35-7.17-12.38-7.17c-8.96 0-9.94 8.4-16.78 8.11" stroke="#034ea6" stroke-linecap="round" stroke-linejoin="round" stroke-miterlimit="10" stroke-width="2"/><path d="m815.33 149.82s-4.4.98-7.17-.65-6.35-7.17-12.38-7.17c-8.96 0-9.94 8.4-16.78 8.11" stroke="#034ea6" stroke-linecap="round" stroke-linejoin="round" stroke-miterlimit="10" stroke-width="2"/><path d="m781.33 129.82s-4.4.98-7.17-.65-6.35-7.17-12.38-7.17c-8.96 0-9.94 8.4-16.78 8.11" stroke="#034ea6" stroke-linecap="round" stroke-linejoin="round" stroke-miterlimit="10" stroke-width="2"/><path d="m781.33 149.82s-4.4.98-7.17-.65-6.35-7.17-12.38-7.17c-8.96 0-9.94 8.4-16.78 8.11" stroke="#034ea6" stroke-linecap="round" stroke-linejoin="round" stroke-miterlimit="10" stroke-width="2"/><rect fill="#0a2d4d" height="288" rx="9" stroke="#034ea6" stroke-width="2" width="246" x="506" y="53"/><path d="m506 209h246v123c0 4.971-4.029 9-9 9h-228c-4.971 0-9-4.029-9-9z" stroke="#034ea6" stroke-width="2"/><path d="m516 64c0-.5523.448-1 1-1h224c.552 0 1 .4477 1 1v134c0 .552-.448 1-1 1h-224c-.552 0-1-.448-1-1z" stroke="#034ea6" stroke-width="2"/><rect fill="#0a2d4d" height="6" rx="1" stroke="#034ea6" stroke-width="2" width="186" x="536" y="206"/><path clip-rule="evenodd" d="m521 226h8v8h-8zm-2 0c0-1.105.895-2 2-2h8c1.105 0 2 .895 2 2v8c0 1.105-.895 2-2 2h-8c-1.105 0-2-.895-2-2zm18 0h8v8h-8zm-2 0c0-1.105.895-2 2-2h8c1.105 0 2 .895 2 2v8c0 1.105-.895 2-2 2h-8c-1.105 0-2-.895-2-2zm26 0h-8v8h8zm-8-2c-1.105 0-2 .895-2 2v8c0 1.105.895 2 2 2h8c1.105 0 2-.895 2-2v-8c0-1.105-.895-2-2-2zm16 2h8v8h-8zm-2 0c0-1.105.895-2 2-2h8c1.105 0 2 .895 2 2v8c0 1.105-.895 2-2 2h-8c-1.105 0-2-.895-2-2zm26 0h-8v8h8zm-8-2c-1.105 0-2 .895-2 2v8c0 1.105.895 2 2 2h8c1.105 0 2-.895 2-2v-8c0-1.105-.895-2-2-2zm16 2h8v8h-8zm-2 0c0-1.105.895-2 2-2h8c1.105 0 2 .895 2 2v8c0 1.105-.895 2-2 2h-8c-1.105 0-2-.895-2-2zm26 0h-8v8h8zm-8-2c-1.105 0-2 .895-2 2v8c0 1.105.895 2 2 2h8c1.105 0 2-.895 2-2v-8c0-1.105-.895-2-2-2zm16 2h8v8h-8zm-2 0c0-1.105.895-2 2-2h8c1.105 0 2 .895 2 2v8c0 1.105-.895 2-2 2h-8c-1.105 0-2-.895-2-2zm26 0h-8v8h8zm-8-2c-1.105 0-2 .895-2 2v8c0 1.105.895 2 2 2h8c1.105 0 2-.895 2-2v-8c0-1.105-.895-2-2-2zm16 2h8v8h-8zm-2 0c0-1.105.895-2 2-2h8c1.105 0 2 .895 2 2v8c0 1.105-.895 2-2 2h-8c-1.105 0-2-.895-2-2zm26 0h-8v8h8zm-8-2c-1.105 0-2 .895-2 2v8c0 1.105.895 2 2 2h8c1.105 0 2-.895 2-2v-8c0-1.105-.895-2-2-2zm16 2h8v8h-8zm-2 0c0-1.105.895-2 2-2h8c1.105 0 2 .895 2 2v8c0 1.105-.895 2-2 2h-8c-1.105 0-2-.895-2-2zm26 0h-8v8h8zm-8-2c-1.105 0-2 .895-2 2v8c0 1.105.895 2 2 2h8c1.105 0 2-.895 2-2v-8c0-1.105-.895-2-2-2zm16 2h8v8h-8zm-2 0c0-1.105.895-2 2-2h8c1.105 0 2 .895 2 2v8c0 1.105-.895 2-2 2h-8c-1.105 0-2-.895-2-2zm-206 16h24v8h-24zm-2 0c0-1.105.895-2 2-2h24c1.105 0 2 .895 2 2v8c0 1.105-.895 2-2 2h-24c-1.105 0-2-.895-2-2zm34 0h8v8h-8zm-2 0c0-1.105.895-2 2-2h8c1.105 0 2 .895 2 2v8c0 1.105-.895 2-2 2h-8c-1.105 0-2-.895-2-2zm26 0h-8v8h8zm-8-2c-1.105 0-2 .895-2 2v8c0 1.105.895 2 2 2h8c1.105 0 2-.895 2-2v-8c0-1.105-.895-2-2-2zm16 2h8v8h-8zm-2 0c0-1.105.895-2 2-2h8c1.105 0 2 .895 2 2v8c0 1.105-.895 2-2 2h-8c-1.105 0-2-.895-2-2zm26 0h-8v8h8zm-8-2c-1.105 0-2 .895-2 2v8c0 1.105.895 2 2 2h8c1.105 0 2-.895 2-2v-8c0-1.105-.895-2-2-2zm16 2h8v8h-8zm-2 0c0-1.105.895-2 2-2h8c1.105 0 2 .895 2 2v8c0 1.105-.895 2-2 2h-8c-1.105 0-2-.895-2-2zm26 0h-8v8h8zm-8-2c-1.105 0-2 .895-2 2v8c0 1.105.895 2 2 2h8c1.105 0 2-.895 2-2v-8c0-1.105-.895-2-2-2zm16 2h8v8h-8zm-2 0c0-1.105.895-2 2-2h8c1.105 0 2 .895 2 2v8c0 1.105-.895 2-2 2h-8c-1.105 0-2-.895-2-2zm26 0h-8v8h8zm-8-2c-1.105 0-2 .895-2 2v8c0 1.105.895 2 2 2h8c1.105 0 2-.895 2-2v-8c0-1.105-.895-2-2-2zm16 2h8v8h-8zm-2 0c0-1.105.895-2 2-2h8c1.105 0 2 .895 2 2v8c0 1.105-.895 2-2 2h-8c-1.105 0-2-.895-2-2zm26 0h-8v8h8zm-8-2c-1.105 0-2 .895-2 2v8c0 1.105.895 2 2 2h8c1.105 0 2-.895 2-2v-8c0-1.105-.895-2-2-2zm16 2h24v8h-24zm-2 0c0-1.105.895-2 2-2h24c1.105 0 2 .895 2 2v8c0 1.105-.895 2-2 2h-24c-1.105 0-2-.895-2-2zm-150 16h-40v8h40zm-40-2c-1.105 0-2 .895-2 2v8c0 1.105.895 2 2 2h40c1.105 0 2-.895 2-2v-8c0-1.105-.895-2-2-2zm56 2h-8v8h8zm-8-2c-1.105 0-2 .895-2 2v8c0 1.105.895 2 2 2h8c1.105 0 2-.895 2-2v-8c0-1.105-.895-2-2-2zm16 2h8v8h-8zm-2 0c0-1.105.895-2 2-2h8c1.105 0 2 .895 2 2v8c0 1.105-.895 2-2 2h-8c-1.105 0-2-.895-2-2zm26 0h-8v8h8zm-8-2c-1.105 0-2 .895-2 2v8c0 1.105.895 2 2 2h8c1.105 0 2-.895 2-2v-8c0-1.105-.895-2-2-2zm16 2h8v8h-8zm-2 0c0-1.105.895-2 2-2h8c1.105 0 2 .895 2 2v8c0 1.105-.895 2-2 2h-8c-1.105 0-2-.895-2-2zm26 0h-8v8h8zm-8-2c-1.105 0-2 .895-2 2v8c0 1.105.895 2 2 2h8c1.105 0 2-.895 2-2v-8c0-1.105-.895-2-2-2zm16 2h8v8h-8zm-2 0c0-1.105.895-2 2-2h8c1.105 0 2 .895 2 2v8c0 1.105-.895 2-2 2h-8c-1.105 0-2-.895-2-2zm26 0h-8v8h8zm-8-2c-1.105 0-2 .895-2 2v8c0 1.105.895 2 2 2h8c1.105 0 2-.895 2-2v-8c0-1.105-.895-2-2-2zm16 2h8v8h-8zm-2 0c0-1.105.895-2 2-2h8c1.105 0 2 .895 2 2v8c0 1.105-.895 2-2 2h-8c-1.105 0-2-.895-2-2zm58 0h-40v8h40zm-40-2c-1.105 0-2 .895-2 2v8c0 1.105.895 2 2 2h40c1.105 0 2-.895 2-2v-8c0-1.105-.895-2-2-2zm-168 18h-8v8h8zm-8-2c-1.105 0-2 .895-2 2v8c0 1.105.895 2 2 2h8c1.105 0 2-.895 2-2v-8c0-1.105-.895-2-2-2zm24 2h-8v8h8zm-8-2c-1.105 0-2 .895-2 2v8c0 1.105.895 2 2 2h8c1.105 0 2-.895 2-2v-8c0-1.105-.895-2-2-2zm16 2h8v8h-8zm-2 0c0-1.105.895-2 2-2h8c1.105 0 2 .895 2 2v8c0 1.105-.895 2-2 2h-8c-1.105 0-2-.895-2-2zm26 0h-8v8h8zm-8-2c-1.105 0-2 .895-2 2v8c0 1.105.895 2 2 2h8c1.105 0 2-.895 2-2v-8c0-1.105-.895-2-2-2zm16 2h8v8h-8zm-2 0c0-1.105.895-2 2-2h8c1.105 0 2 .895 2 2v8c0 1.105-.895 2-2 2h-8c-1.105 0-2-.895-2-2zm26 0h-8v8h8zm-8-2c-1.105 0-2 .895-2 2v8c0 1.105.895 2 2 2h8c1.105 0 2-.895 2-2v-8c0-1.105-.895-2-2-2zm16 2h8v8h-8zm-2 0c0-1.105.895-2 2-2h8c1.105 0 2 .895 2 2v8c0 1.105-.895 2-2 2h-8c-1.105 0-2-.895-2-2zm26 0h-8v8h8zm-8-2c-1.105 0-2 .895-2 2v8c0 1.105.895 2 2 2h8c1.105 0 2-.895 2-2v-8c0-1.105-.895-2-2-2zm16 2h8v8h-8zm-2 0c0-1.105.895-2 2-2h8c1.105 0 2 .895 2 2v8c0 1.105-.895 2-2 2h-8c-1.105 0-2-.895-2-2zm26 0h-8v8h8zm-8-2c-1.105 0-2 .895-2 2v8c0 1.105.895 2 2 2h8c1.105 0 2-.895 2-2v-8c0-1.105-.895-2-2-2zm16 2h8v8h-8zm-2 0c0-1.105.895-2 2-2h8c1.105 0 2 .895 2 2v8c0 1.105-.895 2-2 2h-8c-1.105 0-2-.895-2-2zm26 0h-8v8h8zm-8-2c-1.105 0-2 .895-2 2v8c0 1.105.895 2 2 2h8c1.105 0 2-.895 2-2v-8c0-1.105-.895-2-2-2zm16 2h8v8h-8zm-2 0c0-1.105.895-2 2-2h8c1.105 0 2 .895 2 2v8c0 1.105-.895 2-2 2h-8c-1.105 0-2-.895-2-2zm-182 16h-8v8h8zm-8-2c-1.105 0-2 .895-2 2v8c0 1.105.895 2 2 2h8c1.105 0 2-.895 2-2v-8c0-1.105-.895-2-2-2zm24 2h-8v8h8zm-8-2c-1.105 0-2 .895-2 2v8c0 1.105.895 2 2 2h8c1.105 0 2-.895 2-2v-8c0-1.105-.895-2-2-2zm16 2h8v8h-8zm-2 0c0-1.105.895-2 2-2h8c1.105 0 2 .895 2 2v8c0 1.105-.895 2-2 2h-8c-1.105 0-2-.895-2-2zm26 0h-8v8h8zm-8-2c-1.105 0-2 .895-2 2v8c0 1.105.895 2 2 2h8c1.105 0 2-.895 2-2v-8c0-1.105-.895-2-2-2zm16 2h72v8h-72zm-2 0c0-1.105.895-2 2-2h72c1.105 0 2 .895 2 2v8c0 1.105-.895 2-2 2h-72c-1.105 0-2-.895-2-2zm90 0h-8v8h8zm-8-2c-1.105 0-2 .895-2 2v8c0 1.105.895 2 2 2h8c1.105 0 2-.895 2-2v-8c0-1.105-.895-2-2-2zm16 2h8v8h-8zm-2 0c0-1.105.895-2 2-2h8c1.105 0 2 .895 2 2v8c0 1.105-.895 2-2 2h-8c-1.105 0-2-.895-2-2zm26 0h-8v8h8zm-8-2c-1.105 0-2 .895-2 2v8c0 1.105.895 2 2 2h8c1.105 0 2-.895 2-2v-8c0-1.105-.895-2-2-2zm16 2h8v8h-8zm-2 0c0-1.105.895-2 2-2h8c1.105 0 2 .895 2 2v8c0 1.105-.895 2-2 2h-8c-1.105 0-2-.895-2-2zm26 0h-8v8h8zm-8-2c-1.105 0-2 .895-2 2v8c0 1.105.895 2 2 2h8c1.105 0 2-.895 2-2v-8c0-1.105-.895-2-2-2z" fill="#034ea6" fill-rule="evenodd"/><path d="m605 309c0-1.657 1.343-3 3-3h42c1.657 0 3 1.343 3 3v22c0 1.657-1.343 3-3 3h-42c-1.657 0-3-1.343-3-3z" stroke="#034ea6" stroke-width="2"/><rect fill="#fab6d7" height="40" rx="6" width="40" x="535" y="142"/><path clip-rule="evenodd" d="m723 147h-136v6h136zm-46 14h-90v6h90z" fill="#0572ec" fill-rule="evenodd"/><path d="m535 124h90v6h-90z" fill="#034ea6"/><path d="m543 85c-4.4 0-8 3.6-8 8s3.6 8 8 8 8-3.6 8-8-3.6-8-8-8zm-.36 10.52c-.264.1978-.64.0096-.64-.32v-4.4c0-.3296.376-.5178.64-.32l2.933 2.2c.214.16.214.48 0 .64z" fill="#fab6d7"/><g stroke-width="2"><path d="m569.5 89.5v8" stroke="#0572ec" stroke-linecap="round" stroke-linejoin="round" stroke-miterlimit="10"/><path d="m581.5 81.5v24" stroke="#0572ec" stroke-linecap="round" stroke-linejoin="round" stroke-miterlimit="10"/><path d="m599.5 81.5v24" stroke="#0572ec" stroke-linecap="round" stroke-linejoin="round" stroke-miterlimit="10"/><path d="m575.5 85.5v16" stroke="#0572ec" stroke-linecap="round" stroke-linejoin="round" stroke-miterlimit="10"/><path d="m587.5 85.5v16" stroke="#0572ec" stroke-linecap="round" stroke-linejoin="round" stroke-miterlimit="10"/><path d="m563.5 91.5v4" stroke="#0572ec" stroke-linecap="round" stroke-linejoin="round" stroke-miterlimit="10"/><path d="m605.5 91.5v4" stroke="#0572ec" stroke-linecap="round" stroke-linejoin="round" stroke-miterlimit="10"/><path d="m641.5 91.5v4" stroke="#0572ec" stroke-linecap="round" stroke-linejoin="round" stroke-miterlimit="10"/><path d="m677.5 91.5v4" stroke="#0572ec" stroke-linecap="round" stroke-linejoin="round" stroke-miterlimit="10"/><path d="m593.5 89.5v8" stroke="#0572ec" stroke-linecap="round" stroke-linejoin="round" stroke-miterlimit="10"/><path d="m701.5 85.5v16" stroke="#0572ec" stroke-linecap="round" stroke-linejoin="round" stroke-miterlimit="10"/><path d="m719.5 91.5v4" stroke="#0572ec" stroke-linecap="round" stroke-linejoin="round" stroke-miterlimit="10"/><path d="m707.5 89.5v8" stroke="#0572ec" stroke-linecap="round" stroke-linejoin="round" stroke-miterlimit="10"/><path d="m659.5 81.5v24" stroke="#0572ec" stroke-linecap="round" stroke-linejoin="round" stroke-miterlimit="10"/><path d="m665.5 85.5v16" stroke="#0572ec" stroke-linecap="round" stroke-linejoin="round" stroke-miterlimit="10"/><path d="m671.5 89.5v8" stroke="#0572ec" stroke-linecap="round" stroke-linejoin="round" stroke-miterlimit="10"/><path d="m617.5 89.5v8" stroke="#0572ec" stroke-linecap="round" stroke-linejoin="round" stroke-miterlimit="10"/><path d="m629.5 81.5v24" stroke="#0572ec" stroke-linecap="round" stroke-linejoin="round" stroke-miterlimit="10"/><path d="m647.5 81.5v24" stroke="#0572ec" stroke-linecap="round" stroke-linejoin="round" stroke-miterlimit="10"/><path d="m623.5 85.5v16" stroke="#0572ec" stroke-linecap="round" stroke-linejoin="round" stroke-miterlimit="10"/><path d="m635.5 85.5v16" stroke="#0572ec" stroke-linecap="round" stroke-linejoin="round" stroke-miterlimit="10"/><path d="m689.5 81.5v24" stroke="#0572ec" stroke-linecap="round" stroke-linejoin="round" stroke-miterlimit="10"/><path d="m713.5 81.5v24" stroke="#0572ec" stroke-linecap="round" stroke-linejoin="round" stroke-miterlimit="10"/><path d="m683.5 85.5v16" stroke="#0572ec" stroke-linecap="round" stroke-linejoin="round" stroke-miterlimit="10"/><path d="m695.5 85.5v16" stroke="#0572ec" stroke-linecap="round" stroke-linejoin="round" stroke-miterlimit="10"/><path d="m653.5 85.5v16" stroke="#0572ec" stroke-linecap="round" stroke-linejoin="round" stroke-miterlimit="10"/><path d="m611.5 91.5v4" stroke="#0572ec" stroke-linecap="round" stroke-linejoin="round" stroke-miterlimit="10"/><path d="m436.24 136.322c0-16.194-13.128-29.322-29.321-29.322h-27.568c-16.194 0-29.322 13.128-29.322 29.322" stroke="#034ea6" stroke-linecap="round" stroke-linejoin="round"/><path d="m350.155 165.667c-6.713 0-12.155-6.632-12.155-14.814s5.442-14.814 12.155-14.814z" stroke="#034ea6" stroke-linecap="round" stroke-linejoin="round" stroke-miterlimit="10"/></g><path d="m350.155 135h4.346c2.209 0 4 1.791 4 4v23.656c0 2.209-1.791 4-4 4h-4.346z" fill="#034ea6"/><path d="m436.204 135h-4.346c-2.209 0-4 1.791-4 4v23.656c0 2.209 1.791 4 4 4h4.346z" fill="#034ea6"/><path d="m436.205 165.668c6.713 0 12.155-6.632 12.155-14.814s-5.442-14.814-12.155-14.814z" stroke="#034ea6" stroke-linecap="round" stroke-linejoin="round" stroke-miterlimit="10" stroke-width="2"/><path d="m371.081 169.152v10.777c0 12.18 9.874 22.054 22.054 22.054 12.18 0 22.054-9.874 22.054-22.054v-10.777" stroke="#034ea6" stroke-linecap="round" stroke-linejoin="round" stroke-width="2"/><path d="m377.845 147.349c0-8.445 6.846-15.29 15.29-15.29s15.29 6.845 15.29 15.29v33.081c0 8.444-6.846 15.29-15.29 15.29s-15.29-6.846-15.29-15.29z" stroke="#034ea6" stroke-width="2"/><rect fill="#034ea6" height="4.00982" rx="2.00491" width="50.1227" x="368.074" y="167.899"/><rect fill="#0572ec" height="9.02208" rx="4" width="35.0859" x="375.592" y="165.644"/><g filter="url(#a)"><rect fill="#ffd480" height="62" rx="8" width="62" x="177" y="41"/></g><circle cx="208" cy="72" fill="#fff" r="25"/><path d="m198 65c1.657 0 3-1.3431 3-3s-1.343-3-3-3-3 1.3431-3 3 1.343 3 3 3z" fill="#034ea6"/><path d="m199 81v-10c0-1.479.464-2.85 1.25-3.982-.083-.005-.166-.018-.25-.018h-4c-2.206 0-4 1.794-4 4v6h2v7h7v-3z" fill="#034ea6"/><path d="m218 65c1.657 0 3-1.3431 3-3s-1.343-3-3-3-3 1.3431-3 3 1.343 3 3 3z" fill="#034ea6"/><path d="m217 81v-10c0-1.479-.464-2.85-1.25-3.982.083-.005.166-.018.25-.018h4c2.206 0 4 1.794 4 4v6h-2v7h-7v-3z" fill="#034ea6"/><path d="m210 66h-4c-2.757 0-5 2.243-5 5v8h3v8h8v-8h3v-8c0-2.757-2.243-5-5-5z" fill="#034ea6"/><path d="m208 64c2.209 0 4-1.7909 4-4s-1.791-4-4-4-4 1.7909-4 4 1.791 4 4 4z" fill="#034ea6"/><rect fill="#0a2d4d" height="168" rx="11" stroke="#034ea6" stroke-width="2" width="86" x="204" y="154"/><path d="m211 170h72v132h-72z" stroke="#034ea6" stroke-width="2"/><rect fill="#fab6d7" height="16" rx="4" width="16" x="218" y="185"/><rect fill="#0572ec" height="16" rx="4" width="16" x="218" y="209"/><rect fill="#fab6d7" height="16" rx="4" width="16" x="218" y="233"/><rect fill="#0572ec" height="16" rx="4" width="16" x="218" y="257"/><g filter="url(#b)"><rect fill="#ffd480" height="72" rx="8" width="108" x="241" y="194"/></g><path d="m241 244h108v14c0 4.418-3.582 8-8 8h-92c-4.418 0-8-3.582-8-8z" fill="#034ea6"/><path d="m308 222.732c1.333-.77 1.333-2.694 0-3.464l-19.5-11.258c-1.333-.77-3 .192-3 1.732v22.516c0 1.54 1.667 2.502 3 1.732z" fill="#fff"/><rect fill="#ffd480" height="2" rx="1" width="80" x="255" y="254"/><circle cx="268" cy="255" fill="#fff" r="4"/><path d="m108.234 268.121-6.364 6.364c-.187.188-.293.442-.293.707v25.467c-2.4675 1.609-4.3406 3.981-5.334 6.754s-1.0526 5.795-.1686 8.605c.884 2.809 2.6628 5.253 5.0646 6.958 2.403 1.704 5.296 2.577 8.24 2.483 2.945-.093 5.777-1.147 8.067-3 2.289-1.853 3.91-4.404 4.614-7.264.705-2.86.454-5.872-.712-8.577-1.167-2.705-3.187-4.953-5.751-6.403l-.001-4.518c.001-.264-.104-.518-.291-.706l-3.535-3.535 3.535-3.536c.188-.187.293-.442.293-.707s-.105-.519-.293-.707l-3.535-3.535 3.535-3.536c.188-.188.293-.442.293-.707v-4.243c0-.265-.105-.519-.293-.707l-5.657-5.657c-.187-.187-.442-.293-.707-.293s-.519.106-.707.293zm3.536 48.791c-.56.559-1.273.94-2.048 1.094-.776.155-1.581.076-2.312-.227-.73-.303-1.355-.816-1.795-1.473-.439-.658-.674-1.432-.674-2.223s.235-1.564.674-2.222c.44-.658 1.065-1.17 1.795-1.473.731-.303 1.536-.382 2.312-.228.775.154 1.488.535 2.048 1.095.75.75 1.171 1.767 1.171 2.828s-.421 2.079-1.171 2.829z" fill="#ffd480"/><path d="m47 198c0-17.673 14.3269-32 32-32h61c17.673 0 32 14.327 32 32s-14.327 32-32 32h-10c-1.105 0-2 .895-2 2v10c0 2.472-2.822 3.883-4.8 2.4l-18.667-14c-.346-.26-.767-.4-1.2-.4h-24.333c-17.6731 0-32-14.327-32-32z" fill="#66cbff"/><path clip-rule="evenodd" d="m89 200c0 4.971-4.0294 9-9 9s-9-4.029-9-9 4.0294-9 9-9 9 4.029 9 9zm30 0c0 4.971-4.029 9-9 9s-9-4.029-9-9 4.029-9 9-9 9 4.029 9 9zm21 9c4.971 0 9-4.029 9-9s-4.029-9-9-9-9 4.029-9 9 4.029 9 9 9z" fill="#fff" fill-rule="evenodd"/><g filter="url(#c)"><rect fill="#ffd480" height="74" rx="8" width="116" x="840" y="89"/></g><g mask="url(#h)"><path d="m840 89h116v15.069l-52.527 34.352c-3.325 2.174-7.621 2.174-10.946 0l-52.527-34.352z" fill="#66cbff"/></g><g filter="url(#d)"><path clip-rule="evenodd" d="m417 240c-5.523 0-10 4.477-10 10v100c0 5.523 4.477 10 10 10h130c5.523 0 10-4.477 10-10v-100c0-5.523-4.477-10-10-10zm10 19c2.209 0 4-1.791 4-4s-1.791-4-4-4-4 1.791-4 4 1.791 4 4 4zm13 0c2.209 0 4-1.791 4-4s-1.791-4-4-4-4 1.791-4 4 1.791 4 4 4zm17-4c0 2.209-1.791 4-4 4s-4-1.791-4-4 1.791-4 4-4 4 1.791 4 4z" fill="#034ea6" fill-rule="evenodd"/></g><rect height="30" rx="3" stroke="#0572ec" stroke-width="2" width="30" x="428" y="275"/><rect fill="#66cbff" height="32" rx="4" width="32" x="469" y="274"/><rect height="30" rx="3" stroke="#0572ec" stroke-width="2" width="30" x="512" y="275"/><rect fill="#fff" height="32" rx="4" width="32" x="427" y="316"/><rect height="30" rx="3" stroke="#0572ec" stroke-width="2" width="30" x="470" y="317"/><path d="m512 321c0-2.209 1.791-4 4-4h22c2.209 0 4 1.791 4 4v22c0 2.209-1.791 4-4 4h-22c-2.209 0-4-1.791-4-4z" stroke="#fab6d7" stroke-dasharray="7 7" stroke-linecap="round" stroke-width="2"/><g filter="url(#e)"><path clip-rule="evenodd" d="m474.835 38.3c9.945 6.9175 24.676 12.0124 35.044 12.0124.735 0 1.331.5964 1.331 1.3312 0 15.9086-4.816 30.6859-13.21 42.3038-2.698 3.7338-5.765 7.1416-9.161 10.1556-4.655 4.13-9.926 7.521-15.709 9.999-.021.009-.043.018-.064.026-.149.055-.305.082-.461.082-.011 0-.022 0-.033 0-.168-.004-.334-.04-.491-.108-2.892-1.239-5.656-2.706-8.278-4.38-3.883-2.478-7.456-5.409-10.678-8.722-12.009-12.352-19.125-30.0184-19.125-49.3564 0-.6774.507-1.2372 1.162-1.3205.055-.0071.112-.0107.169-.0107 9.518 0 22.714-4.2939 32.507-10.3499.874-.5406 1.721-1.0952 2.536-1.6621.49-.3403.967-.6851 1.432-1.0338.236-.1771.516-.2659.796-.2666.282-.0007.565.0882.802.2666.465.3486.942.6932 1.431 1.0334zm-2.23 1.6823v35.623z" fill="#66cbff" fill-rule="evenodd"/></g><path d="m480 69.5h.5v-.5-4c0-1.9891-.79-3.8968-2.197-5.3033-1.406-1.4065-3.314-2.1967-5.303-2.1967s-3.897.7902-5.303 2.1967c-1.407 1.4065-2.197 3.3142-2.197 5.3033v4 .5h.5 2 .5v-.5-4c0-1.1935.474-2.3381 1.318-3.182s1.989-1.318 3.182-1.318 2.338.4741 3.182 1.318 1.318 1.9885 1.318 3.182v4 .5h.5z" fill="#fff" stroke="#fff"/><path d="m484 70h-22c-.53 0-1.039.2107-1.414.5858s-.586.8838-.586 1.4142v15c0 .5304.211 1.0391.586 1.4142s.884.5858 1.414.5858h22c.53 0 1.039-.2107 1.414-.5858s.586-.8838.586-1.4142v-15c0-.5304-.211-1.0391-.586-1.4142s-.884-.5858-1.414-.5858z" fill="#fff"/><g filter="url(#f)"><path d="m779 262c0-4.418 3.582-8 8-8h92c4.418 0 8 3.582 8 8v58c0 4.418-3.582 8-8 8h-92c-4.418 0-8-3.582-8-8z" fill="#66cbff"/></g><path d="m863.276 288.73c-12.047-16.905-25.184-18.73-30.276-18.73-5.135 0-18.366 1.826-30.288 18.744-.465.66-.714 1.449-.712 2.256.002.808.255 1.595.723 2.253 3.129 4.399 14.551 18.747 30.277 18.747 5.055 0 18.121-1.825 30.264-18.733.475-.661.732-1.453.734-2.267.002-.813-.25-1.607-.722-2.27zm-30.27 14.27c-2.373 0-4.693-.704-6.667-2.022-1.973-1.319-3.511-3.193-4.419-5.386-.909-2.193-1.146-4.605-.683-6.933s1.606-4.466 3.284-6.144c1.678-1.679 3.816-2.821 6.144-3.284s4.741-.226 6.933.682c2.193.909 4.067 2.447 5.386 4.42 1.318 1.974 2.022 4.294 2.022 6.667 0 3.183-1.264 6.235-3.515 8.485-2.25 2.251-5.302 3.515-8.485 3.515z" fill="#fffaef"/><g filter="url(#g)"><rect fill="#034ea6" height="30" rx="15" width="110" x="890" y="213"/></g><path clip-rule="evenodd" d="m915 233c2.761 0 5-2.239 5-5s-2.239-5-5-5-5 2.239-5 5 2.239 5 5 5zm20 0c2.761 0 5-2.239 5-5s-2.239-5-5-5-5 2.239-5 5 2.239 5 5 5zm25-5c0 2.761-2.239 5-5 5s-5-2.239-5-5 2.239-5 5-5 5 2.239 5 5zm15 5c2.761 0 5-2.239 5-5s-2.239-5-5-5-5 2.239-5 5 2.239 5 5 5z" fill="#fff" fill-rule="evenodd"/></svg>